<svg xmlns="http://www.w3.org/2000/svg" viewBox="0 0 77.95 39.47"><defs><style>.cls-1{fill:#303;}</style></defs><title>logo-portfolio</title><g id="Layer_13" data-name="Layer 13"><path class="cls-1" d="M6.16,21.08h-4l-.95,3H0l3.09-9.27a.45.45,0,0,1,.46-.33H4.83a.45.45,0,0,1,.46.33l3.09,9.27H7.11ZM5.83,20,4.62,16.2c-.08-.25-.17-.53-.24-.78H4c-.07.25-.15.53-.24.78L2.55,20Z"/><path class="cls-1" d="M10.91,22.13c0,.64.29.92.93.92H15.3l.06.95c-1.21.1-2.48.1-3.72.1-1.42,0-1.95-.77-1.95-1.81V14.48h1.21Z"/><path class="cls-1" d="M22.78,23.07l.06.95c-1.28.08-2.74.08-4.12.08a1.65,1.65,0,0,1-1.85-1.67V16.13a1.65,1.65,0,0,1,1.85-1.67c1.38,0,2.84,0,4.12.08l-.06,1H18.92c-.57,0-.83.28-.83.92v2.09h4.15v1H18.09v2.63c0,.65.26.93.83.93Z"/><path class="cls-1" d="M28.26,19.57h-.35l-2.39,4.51H24.19l2.7-5-2.52-4.63h1.32l2.2,4.15h.4l2.2-4.15h1.32l-2.53,4.63,2.71,5H30.66Z"/><path class="cls-1" d="M43.81,16.43v2.23h4v1h-4v4.44H42.58V16.19a1.65,1.65,0,0,1,1.85-1.73c1.34,0,2.74,0,4,.1l-.07.95h-3.6C44.09,15.51,43.81,15.79,43.81,16.43Z"/><path class="cls-1" d="M57,20.41c0,2.78-.92,3.86-3.44,3.86s-3.55-1.07-3.55-3.86V14.48h1.22v5.93c0,2.06.58,2.76,2.27,2.76s2.27-.7,2.27-2.76V14.48H57Z"/><path class="cls-1" d="M61.61,19.57H60.42a6.43,6.43,0,0,1,.08,1v3.49H59.3v-9.6h1.21v3a7.08,7.08,0,0,1-.08,1.1h1.17l2.92-4.11h1.34l-2.8,4a3.59,3.59,0,0,1-.53.61v0a4.32,4.32,0,0,1,.6.67L66,24.08H64.67Z"/><path class="cls-1" d="M74.47,20.41c0,2.78-.92,3.86-3.44,3.86s-3.55-1.07-3.55-3.86V14.48h1.22v5.93c0,2.06.58,2.76,2.27,2.76s2.27-.7,2.27-2.76V14.48h1.22Z"/><path class="cls-1" d="M77.95,24.08H76.73v-9.6h1.22Z"/><path class="cls-1" d="M49.86,7.68h-3V7.53a1,1,0,0,0-.13-.58.85.85,0,0,0-.53-.29,5.35,5.35,0,0,0-1.12-.09h-1.9a17.11,17.11,0,0,1-2.48-.15A4.88,4.88,0,0,1,39,5.88a3.46,3.46,0,0,1-1.15-1.06A7.1,7.1,0,0,1,37,3.09a14.21,14.21,0,0,1-.87,1.67,3.69,3.69,0,0,1-.81.94,2.78,2.78,0,0,1-.91.48,7.51,7.51,0,0,1-1.19.24c-.3,0-.82.08-1.56.1s-1.71,0-2.91,0a2.65,2.65,0,0,0-1.33.21.88.88,0,0,0-.28.75v.15h-3V7.2c0-.38,0-.71,0-1a4.24,4.24,0,0,1,.09-.67,3.68,3.68,0,0,1,.53-1.28,2.39,2.39,0,0,1,1-.8A6.15,6.15,0,0,1,27.63,3q1.14-.1,2.94-.1A21,21,0,0,0,33,2.82a5.58,5.58,0,0,0,1.69-.43,2.38,2.38,0,0,0,1-.89A3.41,3.41,0,0,0,36.18,0H37.8a3,3,0,0,0,.71,1.78,3,3,0,0,0,1.64.94,2.76,2.76,0,0,0,.69.08l1.17,0,1.42.06L44.89,3,46.18,3a8.1,8.1,0,0,1,.89.11,4,4,0,0,1,1.82.8,2.84,2.84,0,0,1,.82,1.3,4.19,4.19,0,0,1,.12.81q0,.48,0,1.14Z"/><path class="cls-1" d="M24.12,31.79h3v.15a1,1,0,0,0,.13.58.85.85,0,0,0,.53.29,5.35,5.35,0,0,0,1.12.09h1.9a17.11,17.11,0,0,1,2.48.15,4.88,4.88,0,0,1,1.69.54,3.46,3.46,0,0,1,1.15,1.06A7.1,7.1,0,0,1,37,36.38a14.21,14.21,0,0,1,.87-1.67,3.69,3.69,0,0,1,.81-.94,2.78,2.78,0,0,1,.91-.48,7.51,7.51,0,0,1,1.19-.24c.3,0,.82-.08,1.56-.1s1.71,0,2.91,0a2.65,2.65,0,0,0,1.33-.21.88.88,0,0,0,.28-.75v-.15h3v.48c0,.38,0,.71,0,1a4.24,4.24,0,0,1-.09.67,3.68,3.68,0,0,1-.53,1.28,2.39,2.39,0,0,1-1,.8,6.15,6.15,0,0,1-1.83.4q-1.14.1-2.94.1a21,21,0,0,0-2.43.12,5.58,5.58,0,0,0-1.69.43,2.38,2.38,0,0,0-1,.89,3.41,3.41,0,0,0-.45,1.5H36.18a2.89,2.89,0,0,0-2.34-2.73,2.76,2.76,0,0,0-.69-.08l-1.17,0-1.42-.06-1.47-.06-1.29-.07a8.1,8.1,0,0,1-.89-.11,4,4,0,0,1-1.82-.8,2.84,2.84,0,0,1-.82-1.3,4.19,4.19,0,0,1-.12-.81q0-.48,0-1.14Z"/></g></svg>