<svg xmlns="http://www.w3.org/2000/svg"><defs><style>.cls-1{fill:#303;}</style></defs><title>logo-portfolio</title><g id="Layer_13" data-name="Layer 13"><path class="cls-1" d="M6.21,21.21h-4l-1,3H0l3.11-9.33a.45.45,0,0,1,.46-.34H4.86a.46.46,0,0,1,.46.34l3.11,9.33H7.16Zm-.34-1.06L4.65,16.31c-.08-.25-.17-.53-.24-.78H4c-.07.25-.15.53-.24.78L2.56,20.15Z"/><path class="cls-1" d="M11,22.28c0,.64.29.92.94.92H15.4l.06,1c-1.22.1-2.49.1-3.74.1-1.43,0-2-.77-2-1.82V14.57H11Z"/><path class="cls-1" d="M22.92,23.22l.06,1c-1.29.08-2.76.08-4.15.08A1.66,1.66,0,0,1,17,22.57V16.24a1.66,1.66,0,0,1,1.86-1.68c1.39,0,2.86,0,4.15.08l-.06,1H19c-.57,0-.84.28-.84.92v2.1h4.17v1H18.2v2.65c0,.66.27.94.84.94Z"/><path class="cls-1" d="M28.45,19.7H28.1l-2.41,4.54H24.34l2.72-5-2.54-4.66h1.33l2.21,4.17h.41l2.21-4.17H32l-2.55,4.66,2.73,5H30.86Z"/><path class="cls-1" d="M44.09,16.53v2.24h4v1h-4v4.47H42.86V16.3a1.66,1.66,0,0,1,1.86-1.74c1.34,0,2.76,0,4,.1l-.07,1H45C44.37,15.61,44.09,15.89,44.09,16.53Z"/><path class="cls-1" d="M57.42,20.54c0,2.8-.92,3.88-3.46,3.88s-3.57-1.08-3.57-3.88v-6h1.23v6c0,2.07.59,2.77,2.28,2.77s2.28-.7,2.28-2.77v-6h1.23Z"/><path class="cls-1" d="M62,19.7H60.82a6.47,6.47,0,0,1,.08,1v3.52H59.68V14.57H60.9v3a7.13,7.13,0,0,1-.08,1.11H62l2.94-4.13h1.34l-2.82,4a3.61,3.61,0,0,1-.53.62v0a4.35,4.35,0,0,1,.6.67l2.94,4.34H65.09Z"/><path class="cls-1" d="M75,20.54c0,2.8-.92,3.88-3.46,3.88s-3.57-1.08-3.57-3.88v-6h1.23v6c0,2.07.59,2.77,2.28,2.77s2.28-.7,2.28-2.77v-6H75Z"/><path class="cls-1" d="M78.46,24.24H77.23V14.57h1.23Z"/><path class="cls-1" d="M50.18,7.73h-3V7.58A1,1,0,0,0,47,7a.85.85,0,0,0-.53-.29,5.38,5.38,0,0,0-1.13-.09H43.45A17.22,17.22,0,0,1,41,6.46a4.91,4.91,0,0,1-1.71-.54,3.49,3.49,0,0,1-1.16-1.07,7.14,7.14,0,0,1-.83-1.74,14.3,14.3,0,0,1-.88,1.68,3.72,3.72,0,0,1-.82,1,2.8,2.8,0,0,1-.92.48,7.56,7.56,0,0,1-1.19.24c-.3,0-.82.08-1.57.11s-1.72,0-2.93,0a2.67,2.67,0,0,0-1.34.21.88.88,0,0,0-.29.75v.15h-3V7.25c0-.38,0-.72,0-1a4.26,4.26,0,0,1,.09-.68,3.71,3.71,0,0,1,.53-1.28,2.4,2.4,0,0,1,1-.8,6.19,6.19,0,0,1,1.84-.41Q29,3,30.77,3a21.17,21.17,0,0,0,2.45-.12,5.62,5.62,0,0,0,1.71-.44,2.4,2.4,0,0,0,1-.89A3.43,3.43,0,0,0,36.41,0H38a3,3,0,0,0,.71,1.8,3,3,0,0,0,1.65,1,2.78,2.78,0,0,0,.69.08l1.18,0,1.43.06L45.18,3l1.3.07a8.15,8.15,0,0,1,.89.11A4,4,0,0,1,49.2,4,2.86,2.86,0,0,1,50,5.28a4.22,4.22,0,0,1,.12.82q0,.48,0,1.15Z"/><path class="cls-1" d="M24.28,32h3v.15a1,1,0,0,0,.14.59A.85.85,0,0,0,28,33a5.38,5.38,0,0,0,1.13.09H31a17.22,17.22,0,0,1,2.49.15,4.91,4.91,0,0,1,1.71.54,3.49,3.49,0,0,1,1.16,1.07,7.14,7.14,0,0,1,.83,1.74,14.3,14.3,0,0,1,.88-1.68,3.72,3.72,0,0,1,.82-1,2.8,2.8,0,0,1,.92-.48A7.56,7.56,0,0,1,41,33.27c.3,0,.82-.08,1.57-.11s1.72,0,2.93,0a2.67,2.67,0,0,0,1.34-.21.88.88,0,0,0,.29-.75V32h3v.48c0,.38,0,.72,0,1a4.26,4.26,0,0,1-.09.68,3.71,3.71,0,0,1-.53,1.28,2.4,2.4,0,0,1-1,.8,6.19,6.19,0,0,1-1.84.41q-1.15.1-3,.11a21.17,21.17,0,0,0-2.45.12,5.62,5.62,0,0,0-1.71.44,2.4,2.4,0,0,0-1,.89A3.43,3.43,0,0,0,38,39.73H36.41A2.91,2.91,0,0,0,34.06,37a2.78,2.78,0,0,0-.69-.08l-1.18,0-1.43-.06-1.48-.06L28,36.66a8.15,8.15,0,0,1-.89-.11,4,4,0,0,1-1.83-.8,2.86,2.86,0,0,1-.83-1.31,4.22,4.22,0,0,1-.12-.82q0-.48,0-1.15Z"/></g></svg>